<svg width="17" height="16" viewBox="0 0 17 16" fill="none" xmlns="http://www.w3.org/2000/svg">
<g clip-path="url(#clip0_57_90)">
<path d="M14.5809 6.66666C14.8853 8.16086 14.6684 9.71427 13.9661 11.0679C13.2639 12.4214 12.1188 13.4934 10.7219 14.1049C9.32497 14.7164 7.76063 14.8305 6.28975 14.4282C4.81886 14.026 3.53034 13.1316 2.63906 11.8943C1.74779 10.657 1.30763 9.15148 1.39199 7.62892C1.47635 6.10635 2.08013 4.65872 3.10265 3.52744C4.12516 2.39616 5.5046 1.64961 7.01092 1.4123C8.51725 1.17498 10.0594 1.46123 11.3802 2.22333" stroke="#16A34A" style="stroke:#16A34A;stroke:color(display-p3 0.0863 0.6392 0.2902);stroke-opacity:1;" stroke-width="2" stroke-linecap="round" stroke-linejoin="round"/>
<path d="M6.04688 7.33366L8.04688 9.33366L14.7135 2.66699" stroke="#16A34A" style="stroke:#16A34A;stroke:color(display-p3 0.0863 0.6392 0.2902);stroke-opacity:1;" stroke-width="2" stroke-linecap="round" stroke-linejoin="round"/>
</g>
<defs>
<clipPath id="clip0_57_90">
<rect width="16" height="16" fill="white" style="fill:white;fill-opacity:1;" transform="translate(0.046875)"/>
</clipPath>
</defs>
</svg>
