<svg width="20" height="20" viewBox="0 0 20 20" fill="none" xmlns="http://www.w3.org/2000/svg">
<path d="M12.8975 10.7412L14.16 17.8462C14.1741 17.9299 14.1624 18.0159 14.1263 18.0927C14.0903 18.1695 14.0316 18.2335 13.9583 18.276C13.8849 18.3186 13.8002 18.3378 13.7156 18.331C13.6311 18.3241 13.5506 18.2917 13.485 18.2379L10.5016 15.9987C10.3576 15.8911 10.1827 15.833 10.0029 15.833C9.82312 15.833 9.64816 15.8911 9.50414 15.9987L6.51581 18.237C6.45024 18.2907 6.36986 18.3232 6.28539 18.33C6.20092 18.3368 6.11637 18.3177 6.04303 18.2753C5.96969 18.2328 5.91104 18.169 5.87491 18.0923C5.83878 18.0157 5.82688 17.9298 5.84081 17.8462L7.10248 10.7412" stroke="#2563EB" style="stroke:#2563EB;stroke:color(display-p3 0.1451 0.3882 0.9216);stroke-opacity:1;" stroke-width="2" stroke-linecap="round" stroke-linejoin="round"/>
<path d="M10 11.667C12.7614 11.667 15 9.42842 15 6.66699C15 3.90557 12.7614 1.66699 10 1.66699C7.23858 1.66699 5 3.90557 5 6.66699C5 9.42842 7.23858 11.667 10 11.667Z" stroke="#2563EB" style="stroke:#2563EB;stroke:color(display-p3 0.1451 0.3882 0.9216);stroke-opacity:1;" stroke-width="2" stroke-linecap="round" stroke-linejoin="round"/>
</svg>
