<svg width="40" height="40" viewBox="0 0 40 40" fill="none" xmlns="http://www.w3.org/2000/svg">
<path d="M26.6667 33.333V6.66634C26.6667 5.78229 26.3155 4.93444 25.6904 4.30932C25.0652 3.6842 24.2174 3.33301 23.3333 3.33301H16.6667C15.7826 3.33301 14.9348 3.6842 14.3097 4.30932C13.6845 4.93444 13.3333 5.78229 13.3333 6.66634V33.333" stroke="#4F46E5" style="stroke:#4F46E5;stroke:color(display-p3 0.3098 0.2745 0.8980);stroke-opacity:1;" stroke-width="2" stroke-linecap="round" stroke-linejoin="round"/>
<path d="M33.3333 10H6.66668C4.82573 10 3.33334 11.4924 3.33334 13.3333V30C3.33334 31.841 4.82573 33.3333 6.66668 33.3333H33.3333C35.1743 33.3333 36.6667 31.841 36.6667 30V13.3333C36.6667 11.4924 35.1743 10 33.3333 10Z" stroke="#4F46E5" style="stroke:#4F46E5;stroke:color(display-p3 0.3098 0.2745 0.8980);stroke-opacity:1;" stroke-width="2" stroke-linecap="round" stroke-linejoin="round"/>
</svg>
