<svg width="24" height="24" viewBox="0 0 24 24" fill="none" xmlns="http://www.w3.org/2000/svg">
<path d="M12 5.00005C12.0012 4.60008 11.9224 4.20391 11.7682 3.83485C11.614 3.46579 11.3876 3.13128 11.1023 2.851C10.8169 2.57072 10.4784 2.35032 10.1067 2.20278C9.73489 2.05524 9.33738 1.98353 8.93749 1.99186C8.53761 2.0002 8.14343 2.08841 7.77814 2.25132C7.41284 2.41422 7.08381 2.64853 6.8104 2.94045C6.53699 3.23238 6.32471 3.57604 6.18605 3.9512C6.04739 4.32637 5.98515 4.72548 6.003 5.12505C5.4152 5.27619 4.8695 5.5591 4.40723 5.95236C3.94496 6.34562 3.57824 6.83892 3.33484 7.3949C3.09145 7.95087 2.97776 8.55494 3.00239 9.16136C3.02702 9.76778 3.18932 10.3606 3.477 10.8951C2.97118 11.306 2.57342 11.8343 2.31834 12.434C2.06325 13.0337 1.95856 13.6866 2.01336 14.336C2.06817 14.9854 2.28081 15.6116 2.6328 16.1601C2.98479 16.7085 3.46546 17.1627 4.033 17.4831C3.96291 18.0253 4.00474 18.5761 4.15589 19.1016C4.30703 19.627 4.56429 20.1159 4.91178 20.538C5.25927 20.9601 5.68961 21.3065 6.17622 21.5558C6.66283 21.8051 7.19538 21.952 7.74097 21.9874C8.28657 22.0228 8.83364 21.946 9.34838 21.7617C9.86313 21.5774 10.3346 21.2895 10.7338 20.9158C11.1329 20.5421 11.4512 20.0906 11.669 19.5891C11.8867 19.0876 11.9994 18.5468 12 18V5.00005Z" stroke="#9333EA" style="stroke:#9333EA;stroke:color(display-p3 0.5765 0.2000 0.9176);stroke-opacity:1;" stroke-width="2" stroke-linecap="round" stroke-linejoin="round"/>
<path d="M12 5.00005C11.9988 4.60008 12.0776 4.20391 12.2318 3.83485C12.386 3.46579 12.6124 3.13128 12.8977 2.851C13.1831 2.57072 13.5216 2.35032 13.8933 2.20278C14.2651 2.05524 14.6626 1.98353 15.0625 1.99186C15.4624 2.0002 15.8566 2.08841 16.2219 2.25132C16.5872 2.41422 16.9162 2.64853 17.1896 2.94045C17.463 3.23238 17.6753 3.57604 17.8139 3.9512C17.9526 4.32637 18.0148 4.72548 17.997 5.12505C18.5848 5.27619 19.1305 5.5591 19.5928 5.95236C20.055 6.34562 20.4218 6.83892 20.6652 7.3949C20.9086 7.95087 21.0222 8.55494 20.9976 9.16136C20.973 9.76778 20.8107 10.3606 20.523 10.8951C21.0288 11.306 21.4266 11.8343 21.6817 12.434C21.9367 13.0337 22.0414 13.6866 21.9866 14.336C21.9318 14.9854 21.7192 15.6116 21.3672 16.1601C21.0152 16.7085 20.5345 17.1627 19.967 17.4831C20.0371 18.0253 19.9953 18.5761 19.8441 19.1016C19.693 19.627 19.4357 20.1159 19.0882 20.538C18.7407 20.9601 18.3104 21.3065 17.8238 21.5558C17.3372 21.8051 16.8046 21.952 16.259 21.9874C15.7134 22.0228 15.1664 21.946 14.6516 21.7617C14.1369 21.5774 13.6654 21.2895 13.2662 20.9158C12.8671 20.5421 12.5488 20.0906 12.331 19.5891C12.1132 19.0876 12.0006 18.5468 12 18V5.00005Z" stroke="#9333EA" style="stroke:#9333EA;stroke:color(display-p3 0.5765 0.2000 0.9176);stroke-opacity:1;" stroke-width="2" stroke-linecap="round" stroke-linejoin="round"/>
<path d="M15 13C14.1604 12.7047 13.4273 12.167 12.8933 11.455C12.3593 10.743 12.0485 9.88867 12 9C11.9515 9.88867 11.6407 10.743 11.1067 11.455C10.5727 12.167 9.83956 12.7047 9 13" stroke="#9333EA" style="stroke:#9333EA;stroke:color(display-p3 0.5765 0.2000 0.9176);stroke-opacity:1;" stroke-width="2" stroke-linecap="round" stroke-linejoin="round"/>
<path d="M17.599 6.5C17.841 6.08059 17.9779 5.60882 17.998 5.125" stroke="#9333EA" style="stroke:#9333EA;stroke:color(display-p3 0.5765 0.2000 0.9176);stroke-opacity:1;" stroke-width="2" stroke-linecap="round" stroke-linejoin="round"/>
<path d="M6.00301 5.125C6.02278 5.60873 6.15933 6.0805 6.40101 6.5" stroke="#9333EA" style="stroke:#9333EA;stroke:color(display-p3 0.5765 0.2000 0.9176);stroke-opacity:1;" stroke-width="2" stroke-linecap="round" stroke-linejoin="round"/>
<path d="M3.47701 10.896C3.65994 10.747 3.85571 10.6145 4.062 10.5" stroke="#9333EA" style="stroke:#9333EA;stroke:color(display-p3 0.5765 0.2000 0.9176);stroke-opacity:1;" stroke-width="2" stroke-linecap="round" stroke-linejoin="round"/>
<path d="M19.938 10.5C20.1443 10.6145 20.3401 10.747 20.523 10.896" stroke="#9333EA" style="stroke:#9333EA;stroke:color(display-p3 0.5765 0.2000 0.9176);stroke-opacity:1;" stroke-width="2" stroke-linecap="round" stroke-linejoin="round"/>
<path d="M6 18.0004C5.31083 18.0007 4.63327 17.823 4.033 17.4844" stroke="#9333EA" style="stroke:#9333EA;stroke:color(display-p3 0.5765 0.2000 0.9176);stroke-opacity:1;" stroke-width="2" stroke-linecap="round" stroke-linejoin="round"/>
<path d="M19.967 17.4844C19.3667 17.823 18.6892 18.0007 18 18.0004" stroke="#9333EA" style="stroke:#9333EA;stroke:color(display-p3 0.5765 0.2000 0.9176);stroke-opacity:1;" stroke-width="2" stroke-linecap="round" stroke-linejoin="round"/>
</svg>
