<svg width="110" height="17" viewBox="0 0 110 17" fill="none" xmlns="http://www.w3.org/2000/svg">
<path d="M3.77131 16H0.475852L5.49716 1.45455H9.46023L14.4744 16H11.179L7.53551 4.77841H7.42188L3.77131 16ZM3.56534 10.2827H11.3494V12.6832H3.56534V10.2827ZM16.1115 16V14.196L21.4524 7.58381V7.50568H16.2962V5.09091H25.0959V7.05824L20.0817 13.5071V13.5852H25.2805V16H16.1115ZM27.5373 16V14.196L32.8782 7.58381V7.50568H27.7219V5.09091H36.5217V7.05824L31.5075 13.5071V13.5852H36.7063V16H27.5373ZM39.0199 16V5.09091H42.0455V16H39.0199ZM40.5398 3.68466C40.09 3.68466 39.7041 3.53551 39.3821 3.23722C39.0649 2.93419 38.9062 2.57197 38.9062 2.15057C38.9062 1.7339 39.0649 1.37642 39.3821 1.07812C39.7041 0.775094 40.09 0.623579 40.5398 0.623579C40.9896 0.623579 41.3731 0.775094 41.6903 1.07812C42.0123 1.37642 42.1733 1.7339 42.1733 2.15057C42.1733 2.57197 42.0123 2.93419 41.6903 3.23722C41.3731 3.53551 40.9896 3.68466 40.5398 3.68466ZM44.4691 16V5.09091H47.3526V7.01562H47.4805C47.7077 6.37642 48.0865 5.87216 48.6168 5.50284C49.1471 5.13352 49.7816 4.94886 50.5202 4.94886C51.2683 4.94886 51.9052 5.13589 52.4308 5.50994C52.9563 5.87926 53.3067 6.38116 53.4819 7.01562H53.5955C53.8181 6.39062 54.2205 5.8911 54.8029 5.51705C55.39 5.13826 56.0837 4.94886 56.8839 4.94886C57.9019 4.94886 58.7281 5.2732 59.3626 5.92188C60.0018 6.56581 60.3214 7.47964 60.3214 8.66335V16H57.3029V9.25994C57.3029 8.65388 57.1419 8.19934 56.82 7.89631C56.498 7.59328 56.0955 7.44176 55.6126 7.44176C55.0633 7.44176 54.6348 7.61695 54.3271 7.96733C54.0193 8.31297 53.8654 8.76989 53.8654 9.33807V16H50.9322V9.19602C50.9322 8.66098 50.7783 8.23485 50.4705 7.91761C50.1675 7.60038 49.7674 7.44176 49.2702 7.44176C48.9341 7.44176 48.631 7.52699 48.3612 7.69744C48.096 7.86316 47.8853 8.09754 47.729 8.40057C47.5728 8.69886 47.4947 9.04924 47.4947 9.4517V16H44.4691ZM69.9041 16H66.6087L71.63 1.45455H75.593L80.6072 16H77.3118L73.6683 4.77841H73.5547L69.9041 16ZM69.6982 10.2827H77.4822V12.6832H69.6982V10.2827ZM82.3597 16V5.09091H85.3853V16H82.3597ZM83.8796 3.68466C83.4298 3.68466 83.0439 3.53551 82.7219 3.23722C82.4047 2.93419 82.2461 2.57197 82.2461 2.15057C82.2461 1.7339 82.4047 1.37642 82.7219 1.07812C83.0439 0.775094 83.4298 0.623579 83.8796 0.623579C84.3294 0.623579 84.7129 0.775094 85.0302 1.07812C85.3522 1.37642 85.5131 1.7339 85.5131 2.15057C85.5131 2.57197 85.3522 2.93419 85.0302 3.23722C84.7129 3.53551 84.3294 3.68466 83.8796 3.68466ZM90.8345 9.69318V16H87.8089V5.09091H90.6925V7.01562H90.8203C91.0618 6.38116 91.4666 5.87926 92.0348 5.50994C92.603 5.13589 93.2919 4.94886 94.1016 4.94886C94.8591 4.94886 95.5196 5.11458 96.0831 5.44602C96.6465 5.77746 97.0845 6.25095 97.397 6.86648C97.7095 7.47727 97.8658 8.20644 97.8658 9.05398V16H94.8402V9.59375C94.8449 8.92614 94.6745 8.4053 94.3288 8.03125C93.9832 7.65246 93.5073 7.46307 92.9013 7.46307C92.4941 7.46307 92.1342 7.55066 91.8217 7.72585C91.514 7.90104 91.2725 8.15672 91.0973 8.4929C90.9268 8.82434 90.8393 9.22443 90.8345 9.69318ZM103.361 16.206C102.665 16.206 102.045 16.0852 101.5 15.8438C100.956 15.5975 100.525 15.2353 100.208 14.7571C99.8952 14.2741 99.739 13.6728 99.739 12.9531C99.739 12.3471 99.8503 11.8381 100.073 11.4261C100.295 11.0142 100.598 10.6828 100.982 10.4318C101.365 10.1809 101.801 9.99148 102.289 9.86364C102.781 9.7358 103.297 9.64583 103.837 9.59375C104.471 9.52746 104.983 9.46591 105.371 9.40909C105.759 9.34754 106.041 9.25758 106.216 9.1392C106.391 9.02083 106.479 8.84564 106.479 8.61364V8.57102C106.479 8.12121 106.337 7.7732 106.053 7.52699C105.774 7.28078 105.376 7.15767 104.86 7.15767C104.315 7.15767 103.882 7.27841 103.56 7.51989C103.238 7.75663 103.025 8.05492 102.921 8.41477L100.123 8.1875C100.265 7.52462 100.544 6.9517 100.961 6.46875C101.377 5.98106 101.915 5.60701 102.573 5.34659C103.236 5.08144 104.003 4.94886 104.874 4.94886C105.48 4.94886 106.06 5.01989 106.614 5.16193C107.173 5.30398 107.667 5.52415 108.098 5.82244C108.534 6.12074 108.877 6.50426 109.128 6.97301C109.379 7.43703 109.505 7.99337 109.505 8.64205V16H106.635V14.4872H106.55C106.375 14.8281 106.141 15.1288 105.847 15.3892C105.553 15.6449 105.201 15.8461 104.789 15.9929C104.377 16.1349 103.901 16.206 103.361 16.206ZM104.228 14.1179C104.673 14.1179 105.066 14.0303 105.407 13.8551C105.748 13.6752 106.015 13.4337 106.209 13.1307C106.403 12.8277 106.5 12.4844 106.5 12.1009V10.9432C106.406 11.0047 106.275 11.0616 106.11 11.1136C105.949 11.161 105.766 11.206 105.563 11.2486C105.359 11.2865 105.156 11.322 104.952 11.3551C104.748 11.3835 104.564 11.4096 104.398 11.4332C104.043 11.4853 103.733 11.5682 103.468 11.6818C103.203 11.7955 102.997 11.9493 102.85 12.1435C102.703 12.3329 102.63 12.5696 102.63 12.8537C102.63 13.2656 102.779 13.5805 103.077 13.7983C103.38 14.0114 103.764 14.1179 104.228 14.1179Z" fill="url(#paint0_linear_48_1175)" style=""/>
<defs>
<linearGradient id="paint0_linear_48_1175" x1="0" y1="9" x2="111" y2="9" gradientUnits="userSpaceOnUse">
<stop stop-color="#4F46E5" style="stop-color:#4F46E5;stop-color:color(display-p3 0.3098 0.2745 0.8980);stop-opacity:1;"/>
<stop offset="1" stop-color="#06B6D4" style="stop-color:#06B6D4;stop-color:color(display-p3 0.0235 0.7137 0.8314);stop-opacity:1;"/>
</linearGradient>
</defs>
</svg>
